<?xml version="1.0" encoding="UTF-8"?>
<svg xmlns="http://www.w3.org/2000/svg" viewBox="0 0 99.1 87.52">
  <path fill="#1d1d1b" d="M96.4,34.53c-.2-.31-.51-.68-.85-1.07-.38-.44-.85-.99-.95-1.26-.17-.46-.28-1.2-.39-1.98-.12-.79-.24-1.61-.44-2.29-2.13-7.04-7.51-12.73-14.76-15.61-.54-.21-1.37-.44-2.25-.68-1.09-.29-2.45-.66-2.84-.93-.34-.24-.8-.76-1.28-1.32-.54-.62-1.1-1.25-1.65-1.69-3.73-2.98-9.76-5.11-15.35-5.44-.63-.04-1.49.05-2.32.13-.86.09-1.75.18-2.18.1-.38-.06-1.1-.37-1.8-.68-.75-.32-1.52-.65-2.14-.81-4.32-1.12-9.98-1.33-14.76-.55-4.2.68-9.79,2.43-12.63,6.86-.16.25-.27.53-.37.8-.12.32-.25.64-.42.78-.17.14-1.09.39-1.63.54-.51.14-1,.27-1.31.4-7.79,3.15-11.92,9.06-12.3,17.57C.72,30.07-.55,33.72.22,37.69c1,5.19,5.3,10,10.46,11.7l.13.04c1.07.36,2.27.69,3.02.22.22-.14.49-.41.56-.92.16-1.23-1.52-1.65-2.86-1.98-.39-.09-.75-.18-.98-.27-3.57-1.4-6.51-4.73-7.5-8.46-.7-2.65-.31-5.23,1.11-7.33.1.23.19.46.28.7.26.67.52,1.36.99,1.97,1.61,2.1,4.61,3.04,7.12,2.23,2.05-.67,3.27-2.36,3.33-4.63.05-2.08-.85-3.79-2.54-4.82-1.89-1.15-4.48-1.28-6.68-.38l.29-2.31c.47-3.73,4.21-8.13,7.39-9.89.91-.5,3.04-1.5,4.12-1.81.01.24.02.47.03.7.06,1.54.11,2.99,1.3,4.48,2.08,2.61,5.64,2.75,8.08,1.53,2.46-1.22,3.59-3.53,2.96-6.02-.91-3.55-5.39-4.61-8.61-4.09,1.13-1.8,4.04-3.41,5.74-4.04,5.39-2,12.49-2.21,18.79-.58l-.85.45c-2.18,1.13-3.59,3.54-3.51,5.99.07,2.1,1.23,3.79,3.17,4.63,3.59,1.56,7.26-.16,9.02-2.66,1.29-1.82,1.89-4.57.05-7.15,4.68.13,10.84,1.29,15.77,5.62l-2.13.4c-3.26,1.25-4.97,3.4-4.93,6.22.03,3.02,3.23,5.23,6.29,5.62,3.03.38,5.36-1.02,6.07-3.67.52-1.94.28-3.54-.07-5.3,8.35,2.69,14.07,8.42,15.9,15.89-1.94-.99-4.22-1.81-6.8-1.45-3.13.43-5.2,2.63-5.29,5.61-.08,2.63,1.57,5.81,5.38,6.57,3.54.7,7.83-.65,9.35-4.46,1.95,3.07,2.7,7.19,1.99,11.2-.71,4.04-2.83,7.48-5.8,9.43-3.61,2.37-5.38,1.98-7.9-1.69-.93-1.35-1.73-2.73-2.51-4.07-1.33-2.29-2.72-4.66-4.71-6.88-5.39-6-12.58-8.11-18.39-9.23l2.24-4.53c.33.31.68.64,1.04.99,2.7,2.6,6.39,6.17,10.34,4.46,1.63-.71,2.66-2.05,2.89-3.77.32-2.34-.85-5.09-2.84-6.68-3.97-3.19-8.32-2.93-11.74.65-.33-.32-.66-.63-.99-.95-1.13-1.09-2.3-2.22-3.62-3.17-5.09-3.65-11.87-5.1-18.13-3.87-5.37,1.05-9.81,4-12.52,8.3-.84,1.34-1.14,2.37-1.45,3.46-.16.58-.33,1.17-.6,1.83-.08.2-.62.83-1.01,1.29-.45.53-.91,1.07-1.15,1.46-2.43,3.92-3.3,8.41-2.38,12.31.74,3.12,2.6,5.68,5.4,7.4,4.86,2.99,9.46,2.24,13.92,1.52,3.66-.59,7.44-1.2,11.34.31.61,4.06,3.74,6.62,6.77,9.1,3.17,2.59,6.17,5.04,6.47,9.06.21,2.86-.33,6.15-.89,8.99-.04.22-.14.54-.25.91-.46,1.5-.73,2.53-.34,3.08.25.37.61.57,1,.58.06,0,.13,0,.19-.01.56-.07,1.07-.53,1.29-1.13,1.14-3.18,1.96-9.99,1.59-13.24-.51-4.58-3.95-7.4-7.27-10.13-1.47-1.21-2.87-2.36-3.99-3.63-.4-.45-1.05-1.37-1.39-2.02,1.25.74,2.46,1.62,3.64,2.47,2.08,1.5,4.24,3.06,6.68,3.97,4.07,1.51,13.12,2.48,15.56-2.13.68-1.28.77-2.69.29-4.2-1.18-3.64-5.39-6.81-7.93-8.05-4.13-2.02-10.8-3.27-15.67-1.22-2.4,1.01-4.07,2.69-4.97,5-3.87-1.61-8.03-.96-12.05-.33-5.31.84-10.33,1.63-14.47-2.62-4.11-4.22-2.91-10.65.19-15.41,1.48,2.45,4.25,3.64,7.89,3.39,3.85-.27,5.72-2.8,5.88-5.2.14-2.21-1.23-4.9-4.58-5.56-1.58-.31-3.56.08-5.89,1.16,2.48-4.38,6.55-7.27,11.58-8.19,6.45-1.17,13.51,1.07,18.43,5.85.41.4,1.73,1.72,1.83,1.83.05.26-.5,1.18-.74,1.57-.15.25-.28.47-.36.63l-.24.48c-.58,1.18-1.18,2.39-1.63,3.65-6.99-.67-11.65.29-14.25,2.94-1.56,1.58-2.25,3.8-1.85,5.93.38,2.03,1.68,3.68,3.57,4.54,4.34,1.98,8.65-.75,11-4.33.25-.37.76-1.41,1.36-2.61.59-1.19,1.46-2.93,1.8-3.44,8.23,1.01,14.66,4.49,19.11,10.33,1.01,1.33,1.95,3,2.85,4.62,2.04,3.64,4.14,7.4,7.52,8.2,1.98.47,4.15-.11,6.63-1.78,7.31-4.91,9.44-16.5,4.47-24.31ZM91.47,35.43c-.39.98-1.3,1.78-2.55,2.24-1.59.58-3.52.52-4.79-.15-1.79-.95-2.26-2.79-1.94-4.1.37-1.51,1.64-2.42,3.39-2.44h0c.12,0,.25,0,.37,0,1.46.04,2.86.38,4.07,1,1.9.98,2.27,1.41,1.45,3.46ZM71.32,13.25c.15,0,.28,0,.39,0,.4.01.66.07.86.34,1.01,1.29,1.13,4.55.21,5.81-.86,1.17-2.97,1.04-4.51.33-1.32-.61-2.6-1.81-2.24-3.34.48-2.02,3.27-3.12,5.09-3.14h.2ZM53.18,8.87c-.29,2.11-2.33,3.51-4.19,3.8-1.7.27-3.08-.34-3.71-1.62-.56-1.16-.14-2.23.32-2.92,1.04-1.6,3.34-2.89,5.03-2.85h.04c.41.02.95.38,1.45.97.71.85,1.17,1.95,1.07,2.62ZM21.28,11.13c1.79-.21,5.3-.54,6.57,1.2.77,1.05.52,1.96.18,2.54-.68,1.15-2.24,1.89-3.62,1.71-1.16-.15-2.03-.66-2.6-1.5-.68-1.01-.86-2.43-.53-3.94ZM12.63,32.5c-.63.72-1.71.92-3.02.57-1.8-.48-3.22-2.61-3.02-4.44.53-.38,2.86-.93,3.67-.84,1.25.07,2.24.73,2.7,1.83.43,1.01.3,2.17-.33,2.89ZM45.03,37.52c1.06-.31,4.1-.79,5.23-.76.08,0,.16,0,.22.01l2.5.32c-.17.35-.35.72-.53,1.1-1.51,3.14-3.22,6.71-6.52,7.45-2.95.66-4.71-.79-5.16-2.52-.5-1.96.61-4.55,4.26-5.6ZM60.65,28.13c.01-.37,1.29-1.49,1.96-1.87.66-.37,1.61-.61,2.3-.6.02,0,.05,0,.07,0,2,.11,4.41,1.71,5.36,3.56.41.8.74,2.02-.07,3.29-.38.6-.86.94-1.45,1.03-1.19.19-2.86-.61-4.97-2.37-.53-.44-3.02-2.8-3.21-3.05ZM24.2,32.55c.56-.91,4.11-2.47,5.39-2.51,1.33-.03,2.48.42,3.08,1.23.5.68.59,1.57.24,2.57-.34.98-1.43,1.41-2.29,1.6-2.03.44-4.75-.09-5.71-1.11-.39-.42-.84-1.53-.72-1.77ZM50.75,54.37c.58-1.62,1.68-2.82,3.26-3.59,3.52-1.7,8.84-.97,12.55.5,3.05,1.21,8.67,5.15,7.83,8.75-.69,2.96-7.42,2.52-10.56,1.84-2.92-.63-5.44-2.45-7.87-4.2-1.66-1.2-3.37-2.43-5.21-3.3Z"/>
</svg>
